<?xml version="1.0" encoding="UTF-8" standalone="no"?>
<!-- Created with Inkscape (http://www.inkscape.org/) -->

<svg
   width="40"
   height="40"
   viewBox="0 0 10.583333 10.583333"
   version="1.1"
   id="svg1"
   xmlns="http://www.w3.org/2000/svg"
   xmlns:svg="http://www.w3.org/2000/svg">
  <defs
     id="defs1" />
  <g
     id="layer1">
    <path
       style="font-size:35.2778px;font-family:'Noto Sans Mono';-inkscape-font-specification:'Noto Sans Mono';letter-spacing:-5.29167px;fill:#ffffff;fill-opacity:1;stroke:#ffffff;stroke-width:0.016;stroke-opacity:1"
       d="M 0.4638815,4.6258917 2.0104607,0.59575566 H 2.4958831 L 0.9493039,4.6258917 Z M 4.4770871,2.7406453 4.0198871,1.8657565 3.5683311,2.7350013 3.1506415,2.4697125 3.7489535,1.7133565 2.8345527,1.5948229 2.9135767,1.1714893 3.8731327,1.4142005 3.7941087,0.41513326 h 0.4459112 l -0.067736,0.99906724 0.9652008,-0.2652888 0.084666,0.462844 -0.908756,0.1128896 0.5983112,0.7507112 z m 2.5400048,0 L 6.5598911,1.8657565 6.1083351,2.7350013 5.6906463,2.4697125 6.2889575,1.7133565 5.3745575,1.5948229 5.4535815,1.1714893 6.4131383,1.4142005 6.3341143,0.41513326 h 0.4459112 l -0.067736,0.99906724 0.9652008,-0.2652888 0.084667,0.462844 -0.9087568,0.1128896 0.598312,0.7507112 z"
       id="text3"
       aria-label="/**" />
    <path
       d="m 2.8614839,9.7736877 1.5465736,-4.030124 h 0.4854216 l -1.5465744,4.030124 z m 2.5399936,0 1.5465744,-4.030124 h 0.4854208 l -1.5465744,4.030124 z m 2.5399936,0 1.5465752,-4.030124 h 0.485421 l -1.5465746,4.030124 z"
       id="text4"
       style="font-size:35.2777px;line-height:0;font-family:'Noto Sans Mono';-inkscape-font-specification:'Noto Sans Mono';letter-spacing:-5.29167px;fill:#ffffff;fill-opacity:1;stroke:#ffffff;stroke-width:0.016;stroke-opacity:1"
       aria-label="///" />
    <path
       style="baseline-shift:baseline;display:inline;overflow:visible;opacity:1;fill:#aa1515;fill-opacity:1;stroke:#ffffff;stroke-width:0.096;stroke-linecap:round;stroke-linejoin:round;stroke-dasharray:none;stroke-opacity:1;enable-background:accumulate;stop-color:#000000;stop-opacity:1"
       d="m 9.3570786,1.9705445 c -0.1888304,-0.01416 -0.3761736,0.01156 -0.55,0.046872 -0.3476523,0.070632 -0.6465627,0.1896872 -0.6465627,0.1896872 -0.1480336,0.058384 -0.220664,0.2257544 -0.1621872,0.3737504 0.058384,0.1480328 0.2257536,0.220664 0.3737496,0.1621872 0,0 0.2636315,-0.1031336 0.5496883,-0.1612496 0.143028,-0.029056 0.290088,-0.044552 0.3925,-0.036872 0.1024117,0.00768 0.1343257,0.03544 0.1337497,0.034688 0.06029,0.078864 0.08551,0.227988 0.0425,0.4509376 -0.043,0.2229504 -0.1507265,0.4937832 -0.2781209,0.747188 -0.1262408,0.2511096 -0.168548,0.4475992 -0.3226528,0.6815632 -0.1638688,-0.02964 -0.5391587,-0.097284 -0.5391587,-0.097284 -0.01384,0.1567416 0.3487043,0.634696 0.4631603,0.7721752 0.2478632,-0.0024 1.0709051,-0.2804472 1.1660781,-0.4079208 0,0 -0.302622,-0.069096 -0.567502,-0.1496696 0.20271,-0.3302736 0.165314,-0.24284 0.314762,-0.5401144 0.141511,-0.2814824 0.269641,-0.5888328 0.3290627,-0.8968752 0.05942,-0.3080416 0.05375,-0.642656 -0.1506247,-0.91 C 9.7620063,2.0418789 9.5459133,1.9847029 9.3570826,1.9705453 Z"
       id="path4" />
  </g>
</svg>
